<svg width="20" height="20" viewBox="0 0 20 20" fill="none" xmlns="http://www.w3.org/2000/svg">
<g clip-path="url(#clip0_68_83)">
<path d="M5.392 1.12256C4.00416 1.84375 2.80462 2.88011 1.88955 4.14851C0.974482 5.41692 0.369347 6.8821 0.122667 8.42656H0.702667C4.44267 8.33989 7.37467 8.01589 9.76933 7.28256C8.72933 5.43856 7.46 3.62923 5.93733 1.78923L5.936 1.78789L5.392 1.12256ZM0.00266667 9.75989L0 9.99989C0 12.6892 1.06133 15.1306 2.788 16.9279L3.00267 16.4959C3.01459 16.472 3.02795 16.4488 3.04267 16.4266C5.25333 13.0639 7.75467 11.0639 10.552 10.1666C10.7413 10.1052 10.9333 10.0492 11.1253 9.99856C10.9014 9.4851 10.6626 8.97822 10.4093 8.47856C7.78933 9.32256 4.64 9.66922 0.725333 9.75856H0.004L0.00266667 9.75989Z" fill="#BEBEBE"/>
<path d="M3.81323 17.8573C5.57498 19.2485 7.75511 20.0036 9.9999 20C11.1906 20 12.3332 19.792 13.3906 19.4107V18.4507C13.0652 15.8707 12.4932 13.504 11.6332 11.2453C11.4066 11.3013 11.1812 11.3653 10.9586 11.436C8.52923 12.216 6.25857 13.9733 4.17857 17.1267L3.81457 17.8573H3.81323ZM14.7239 18.816C16.0128 18.1244 17.1345 17.1589 18.0103 15.9873C18.8861 14.8158 19.4947 13.4666 19.7932 12.0347L19.0399 11.6947C16.8719 11.0573 14.8519 10.796 12.9692 11.008C13.8199 13.3013 14.3919 15.7093 14.7186 18.3253C14.7226 18.352 14.7239 18.3787 14.7239 18.408V18.816ZM19.9786 10.656C20.1546 8.03693 19.2897 5.45423 17.5719 3.46934L17.1759 3.90801C15.6159 5.80534 13.8346 7.12134 11.6692 8.01734C11.9519 8.58268 12.2159 9.15201 12.4599 9.72934C14.6892 9.40934 17.0332 9.71068 19.4612 10.4293C19.4908 10.438 19.5198 10.4487 19.5479 10.4613L19.9786 10.656ZM16.6346 2.51734C14.8069 0.892358 12.4455 -0.00363547 9.9999 1.1087e-05C8.82923 1.1087e-05 7.70657 0.200011 6.66257 0.570678L6.96657 0.941344C8.59323 2.90534 9.94257 4.84668 11.0439 6.83201C13.1012 6.00134 14.7319 4.78668 16.1559 3.04934C16.1624 3.04118 16.169 3.03318 16.1759 3.02534L16.6346 2.51868V2.51734Z" fill="#BEBEBE"/>
</g>
<defs>
<clipPath id="clip0_68_83">
<rect width="20" height="20" fill="white"/>
</clipPath>
</defs>
</svg>
