<svg width="60" height="60" viewBox="0 0 60 60" fill="none" xmlns="http://www.w3.org/2000/svg">
<circle cx="30" cy="30" r="30" fill="white"/>
<path d="M58.5 30C58.5 33.7427 57.7628 37.4487 56.3306 40.9065C54.8983 44.3643 52.799 47.5061 50.1525 50.1525C47.5061 52.799 44.3643 54.8983 40.9065 56.3306C37.4487 57.7628 33.7427 58.5 30 58.5C26.2573 58.5 22.5513 57.7628 19.0935 56.3306C15.6357 54.8983 12.4939 52.799 9.84746 50.1525C7.20099 47.5061 5.10169 44.3643 3.66943 40.9065C2.23717 37.4487 1.5 33.7427 1.5 30C1.5 26.2573 2.23717 22.5513 3.66943 19.0935C5.10169 15.6357 7.20099 12.4939 9.84746 9.84745C12.4939 7.20099 15.6357 5.10169 19.0935 3.66943C22.5513 2.23717 26.2573 1.5 30 1.5C33.7427 1.5 37.4487 2.23718 40.9065 3.66943C44.3643 5.10169 47.5061 7.20099 50.1525 9.84746C52.799 12.4939 54.8983 15.6357 56.3306 19.0935C57.7628 22.5513 58.5 26.2573 58.5 30L58.5 30Z" stroke="#E8E8E8" stroke-width="3" stroke-linecap="round" stroke-linejoin="round"/>
<path d="M58.5 30C58.5 33.7427 57.7628 37.4487 56.3306 40.9065C54.8983 44.3643 52.799 47.5061 50.1525 50.1525C47.5061 52.799 44.3643 54.8983 40.9065 56.3306C37.4487 57.7628 33.7427 58.5 30 58.5C26.2573 58.5 22.5513 57.7628 19.0935 56.3306C15.6357 54.8983 12.4939 52.799 9.84746 50.1525C7.20099 47.5061 5.10169 44.3643 3.66943 40.9065C2.23717 37.4487 1.5 33.7427 1.5 30C1.5 26.2573 2.23717 22.5513 3.66943 19.0935C5.10169 15.6357 7.20099 12.4939 9.84746 9.84745C12.4939 7.20099 15.6357 5.10169 19.0935 3.66943C22.5513 2.23717 26.2573 1.5 30 1.5C33.7427 1.5 37.4487 2.23718 40.9065 3.66943C44.3643 5.10169 47.5061 7.20099 50.1525 9.84746C52.799 12.4939 54.8983 15.6357 56.3306 19.0935C57.7628 22.5513 58.5 26.2573 58.5 30L58.5 30Z" stroke="#7A7A7A" stroke-width="3" stroke-linecap="round" stroke-linejoin="round"/>
<path d="M18 34.9414C18 34.4109 18.1954 33.8805 18.6141 33.4618L28.4687 23.6072C29.2783 22.7976 30.6183 22.7976 31.4279 23.6072L41.2825 33.4618C42.092 34.2714 42.092 35.6114 41.2825 36.4209C40.4729 37.2305 39.1329 37.2305 38.3233 36.4209L29.9483 28.0459L21.5733 36.4209C20.7637 37.2305 19.4237 37.2305 18.6141 36.4209C18.1954 36.0301 18 35.4997 18 34.9414Z" fill="#7A7A7A"/>
</svg>
