<svg width="1440" height="130" viewBox="0 0 1440 130" fill="none" xmlns="http://www.w3.org/2000/svg">
<path d="M0 24.6643L7.244 35.4988C8.65653 37.6115 11.0873 38.7817 13.626 38.6641C31.9689 37.8148 69.7415 39.6643 105.185 52.6733C108.117 53.7495 111.244 54.2225 114.355 53.9451L174.554 48.5771C179.818 48.1076 185.001 50.1135 188.579 54.0045L192.32 58.074C194.665 60.6255 198 62.0382 201.465 61.9485L287.762 59.7135C294.782 59.7135 307.121 58.5259 314.761 54.4715C320.279 51.5435 322.953 45.1287 327.827 41.223C339.228 32.088 362.409 20.374 399.173 18.1297C434.721 13.9713 526.908 10.6446 611.27 30.6048C638.875 37.5355 699.207 54.367 719.702 66.2481C726.502 70.8295 742.147 75.6823 753.886 61.6894C755.876 59.3179 757.659 56.7629 759.898 54.6249C779.266 36.1265 818.005 18.151 845.807 68.2833C848.54 73.2119 854.095 76.0662 859.672 75.2603C879.168 72.4434 913.054 70.7823 944.907 79.2571C945.703 79.4688 946.497 79.6868 947.29 79.9113L1016.86 67.6039C1019.58 67.1229 1022.37 67.9164 1024.43 69.7565L1033.46 77.8362C1036.63 80.6697 1040.86 82.0308 1045.08 81.5409C1077.26 77.8073 1132.58 69.8637 1151.04 61.6193C1153.5 60.5222 1155.37 58.5497 1157.07 56.4657C1170.55 39.9547 1209.01 11.137 1274.97 6.24857C1324.62 2.28821 1427.13 -3.85035 1440 3.2783V131H0V24.6643Z" fill="white"/>
</svg>
